<svg width="220" height="220" viewBox="0 0 220 220" fill="none" xmlns="http://www.w3.org/2000/svg" role="img" aria-labelledby="title desc">
  <title id="title">Nu Vision High School logo</title>
  <desc id="desc">A white shield with green Nu Vision High School lettering, an open book, and a motto ribbon.</desc>
  <path d="M109.7 15.5C123.6 25.5 135.7 24.8 149.7 15.6C153.8 30.1 162.4 39.4 177.6 42.3C173.1 61.4 176.8 77.9 188.3 94.6C181.4 127.9 167.1 153.5 145.7 170.7C133.4 180.5 121.1 185.8 110 187.9C98.9 185.8 86.6 180.5 74.3 170.7C52.9 153.5 38.6 127.9 31.7 94.6C43.2 77.9 46.9 61.4 42.4 42.3C57.6 39.4 66.2 30.1 70.3 15.6C84.3 24.8 95.8 25.5 109.7 15.5Z" fill="#fff"/>
  <path d="M109.7 15.5C123.6 25.5 135.7 24.8 149.7 15.6C153.8 30.1 162.4 39.4 177.6 42.3C173.1 61.4 176.8 77.9 188.3 94.6C181.4 127.9 167.1 153.5 145.7 170.7C133.4 180.5 121.1 185.8 110 187.9C98.9 185.8 86.6 180.5 74.3 170.7C52.9 153.5 38.6 127.9 31.7 94.6C43.2 77.9 46.9 61.4 42.4 42.3C57.6 39.4 66.2 30.1 70.3 15.6C84.3 24.8 95.8 25.5 109.7 15.5Z" stroke="#fff" stroke-width="8" stroke-linejoin="round"/>
  <path d="M48 62.5C89.8 44.7 131.5 44.7 173.3 62.5L164.9 91.1C128.5 76.8 92.4 76.8 56.1 91.1L48 62.5Z" fill="#40844F"/>
  <path d="M66.4 72.2L73 88.8L68.9 90.3L60.1 81.8L63.9 91.9L59.8 93.5L53.3 76.9L57.4 75.3L66.2 84.1L62.4 73.7L66.4 72.2Z" fill="#fff"/>
  <path d="M82.1 84.3C83.4 84 84.3 84.2 85.1 84.8C85.8 85.5 86.2 86.3 86.4 87.4C86.6 88.5 86.4 89.4 85.8 90.1C85.2 90.9 84.4 91.4 83.1 91.6C81.8 91.9 80.9 91.7 80.1 91.1C79.4 90.5 78.9 89.6 78.7 88.5C78.5 87.4 78.8 86.5 79.4 85.8C80 85 80.8 84.5 82.1 84.3Z" fill="#fff"/>
  <path d="M104.2 67.7L98.9 86.3L92.8 86.4L86.8 67.9L92.2 67.8L95.6 80.6L98.8 67.8L104.2 67.7Z" fill="#fff"/>
  <path d="M114 85.9L108.8 85.7L109.5 68.1L114.7 68.3L114 85.9Z" fill="#fff"/>
  <path d="M127.4 87.9C124.9 87.5 122.9 86.6 121.4 85.2C119.9 83.9 119.2 82.1 119.4 80L124.9 80.8C124.9 81.5 125.1 82.1 125.6 82.5C126 83 126.7 83.3 127.6 83.4C128.4 83.5 129.1 83.5 129.6 83.2C130.1 82.9 130.4 82.5 130.5 82C130.6 81.3 130.3 80.8 129.7 80.4C129.1 80 128.1 79.5 126.6 79C125 78.4 123.7 77.9 122.8 77.3C121.9 76.8 121.2 76 120.7 75.1C120.1 74.2 119.9 73.1 120.1 71.7C120.3 70.5 120.9 69.6 121.7 68.8C122.6 68 123.7 67.5 125.1 67.3C126.4 67.1 127.9 67.1 129.5 67.4C131.9 67.8 133.8 68.7 135.1 70C136.5 71.3 137.1 72.9 137 74.9L131.5 74.1C131.5 73.5 131.3 73 130.9 72.6C130.5 72.2 129.9 72 129.1 71.8C128.4 71.7 127.8 71.8 127.4 72C127 72.2 126.7 72.6 126.6 73.1C126.5 73.5 126.6 73.9 126.9 74.2C127.2 74.5 127.7 74.8 128.2 75C128.8 75.3 129.6 75.6 130.6 76C132.2 76.6 133.4 77.2 134.3 77.7C135.2 78.3 135.9 79 136.4 79.9C137 80.8 137.2 81.9 137 83.2C136.8 84.4 136.3 85.4 135.4 86.2C134.5 87 133.4 87.6 132 87.9C130.7 88.2 129.1 88.2 127.4 87.9Z" fill="#fff"/>
  <path d="M148.9 89C150.2 89.4 151.1 90 151.5 90.9C151.9 91.8 152 92.7 151.6 93.8C151.3 94.8 150.7 95.5 149.8 95.9C148.9 96.4 147.9 96.4 146.7 96C145.5 95.6 144.6 95 144.2 94.1C143.8 93.3 143.7 92.3 144.1 91.3C144.4 90.2 145 89.5 145.9 89.1C146.8 88.7 147.8 88.7 148.9 89Z" fill="#fff"/>
  <path d="M162.3 86.7L155.7 103.3L150.8 101.3L153.4 94.8L147.1 92.3L144.5 98.8L139.7 96.9L146.3 80.3L151.1 82.2L148.8 88.2L155.1 90.7L157.5 84.8L162.3 86.7Z" fill="#fff"/>
  <path d="M95.4 120.7C85.1 116.1 76.4 116 67.7 119.6V151.5C76.4 147.9 85.1 148 95.4 152.6V120.7Z" fill="#fff7ec" stroke="#E4A36B" stroke-width="3"/>
  <path d="M96 120.7C106.4 116.1 115.1 116 123.8 119.6V151.5C115.1 147.9 106.4 148 96 152.6V120.7Z" fill="#fff7ec" stroke="#E4A36B" stroke-width="3"/>
  <path d="M75.3 127.6C81 126.4 86.2 126.9 91.8 129.1M75.3 135.1C81 133.9 86.2 134.4 91.8 136.6M119.5 127.6C113.8 126.4 108.6 126.9 103 129.1M119.5 135.1C113.8 133.9 108.6 134.4 103 136.6" stroke="#D08B57" stroke-width="2" stroke-linecap="round"/>
  <circle cx="151.2" cy="108.2" r="7.2" fill="#F1BE24"/>
  <path d="M31.5 166.9C83.2 181.1 136.7 181.1 188.5 166.9L177.9 192.6C133.1 202.4 86.9 202.4 42.1 192.6L31.5 166.9Z" fill="#fff"/>
  <path d="M45.1 170.2C88.5 179.6 131.5 179.6 174.9 170.2" stroke="#222" stroke-width="1.6"/>
  <path d="M64.6 174.8L70.3 175.8L70.1 177L66.2 176.3L65.9 178.2L69.4 178.8L69.2 180L65.7 179.4L65.3 181.6L69.3 182.3L69.1 183.5L63.3 182.4L64.6 174.8ZM76.2 176.8L77.7 177L75.1 184.5L73.5 184.3L72.7 176.4L74.2 176.6L74.7 182.2L76.2 176.8ZM82 177.5L87.8 177.9L87.7 179.1L83.4 178.8L83.3 180.8L87.1 181L87 182.2L83.2 182L83.1 184.2L87.4 184.5L87.3 185.7L81.4 185.3L82 177.5ZM91.2 177.9L92.7 177.9L95.9 183.1L96 177.9L97.4 177.9L97.2 185.8L95.8 185.8L92.6 180.6L92.5 185.7L91 185.7L91.2 177.9ZM101.3 177.8L107.5 177.6L107.6 178.8L105.2 178.9L105.5 185.6L104 185.7L103.7 179L101.3 179.1L101.3 177.8ZM111.1 177.2L112.6 177L113.4 183.7L117.1 183.3L117.3 184.5L112.1 185.2L111.1 177.2ZM120.4 176.1L126.1 175.1L126.3 176.3L122.1 177L122.5 178.9L126.2 178.3L126.4 179.5L122.7 180.1L123.1 182.3L127.3 181.6L127.5 182.8L121.8 183.8L120.4 176.1ZM131.4 174.1L135.2 173C136 172.8 136.7 172.8 137.3 173.1C137.9 173.4 138.3 173.9 138.5 174.6C138.8 175.6 138.5 176.4 137.6 176.9C138.8 176.8 139.6 177.3 139.9 178.4C140.1 179.2 140 179.8 139.5 180.4C139 181 138.4 181.4 137.5 181.6L133.7 182.7L131.4 174.1ZM134.7 177.3L136.2 176.9C136.6 176.8 136.9 176.6 137.1 176.3C137.3 176.1 137.3 175.8 137.2 175.4C137.1 175.1 136.9 174.8 136.7 174.7C136.4 174.6 136.1 174.6 135.6 174.7L134 175.2L134.7 177.3ZM135.7 181L137.3 180.5C137.8 180.4 138.1 180.2 138.3 179.9C138.5 179.7 138.5 179.3 138.4 178.9C138.3 178.5 138 178.2 137.7 178.1C137.4 178 137 178 136.5 178.2L135 178.6L135.7 181ZM143.2 170.3L144.6 169.8L147.4 177.2L146 177.7L143.2 170.3ZM149.3 168L150.7 167.4L153.4 171.7L152.5 166.6L153.9 166L158 173.2L156.6 173.8L153.8 169.1L154.8 174.6L153.6 175.1L150.6 170.3L151.8 175.8L150.4 176.4L149.3 168Z" fill="#1F2933"/>
  <path d="M78 193.7C99 197.2 121 197.2 142 193.7" stroke="#1F2933" stroke-width="1.4"/>
</svg>
